<?xml version="1.0" encoding="utf-8"?>
<!-- Generator: Adobe Illustrator 25.0.0, SVG Export Plug-In . SVG Version: 6.00 Build 0)  -->
<svg version="1.1" id="Layer_1" xmlns="http://www.w3.org/2000/svg" xmlns:xlink="http://www.w3.org/1999/xlink" x="0px" y="0px"
	 viewBox="0 0 540 342" style="enable-background:new 0 0 540 342;" xml:space="preserve">
	<style type="text/css">
	.st0{fill:none;}
	.st1{fill:#FFFFFF;}
	.st2{fill:none;stroke:#231F20;stroke-width:2.7;stroke-linecap:round;}
	.st3{fill:none;stroke:#231F20;stroke-width:0.9;}
	.st4{fill:none;stroke:#231F20;stroke-width:1.8;}
</style>
	<rect x="-0.1" y="-0.1" class="st0" width="540" height="342"/>
	<polyline class="st1" points="167.9,204 246.2,204 246.8,204 251.2,198 252.1,198 255.7,203.3 260.2,197.4 260.7,198 264.4,203.3 
	268.9,197.4 269.4,198 273,203.3 277.5,197.4 278,198 281.7,203.3 286.2,197.4 286.7,198 290.3,203.3 294.8,197.4 295.3,198 
	299,203.3 303.5,197.4 304,198 307.6,203.3 312.1,197.4 312.6,198 316.3,203.3 320.8,197.4 321.3,198 324.9,203.3 329.4,197.4 
	329.9,198 333.5,203.3 338.1,197.4 338.6,198 342.2,203.3 346.7,197.4 347.2,198 350.8,203.3 355.4,197.4 355.8,198 359.5,203.3 
	364,197.4 364.5,198 368.1,203.3 372.7,197.4 373.1,198 376.8,203.3 381.3,197.4 381.8,198 385.4,203.3 390,197.4 390.7,198 
	394.4,203.3 398.9,197.4 402.2,199.4 409.1,194.8 409.1,172.6 409.1,169.2 409.1,147 404.3,143.4 402.6,144.4 398.1,138.6 
	394.5,143.8 393.7,144.4 389.2,138.6 385.5,143.8 385.1,144.4 380.5,138.6 376.9,143.8 376.4,144.4 371.9,138.6 368.2,143.8 
	367.8,144.4 363.2,138.6 359.6,143.8 359.1,144.4 354.6,138.6 351,143.8 350.5,144.4 345.9,138.6 342.3,143.8 341.8,144.4 
	337.3,138.6 333.7,143.8 333.2,144.4 328.6,138.6 325,143.8 324.5,144.4 320,138.6 316.4,143.8 315.9,144.4 311.4,138.6 
	307.7,143.8 307.2,144.4 302.7,138.6 299.1,143.8 298.6,144.4 294.1,138.6 290.4,143.8 289.9,144.4 285.4,138.6 281.8,143.8 
	281.3,144.4 276.8,138.6 273.1,143.8 272.6,144.4 268.1,138.6 264.5,143.8 264,144.4 259.5,138.6 255.8,143.8 254.9,143.9 
	250.6,137.9 167.9,137.9 "/>
	<polyline class="st2" points="167.9,204 246.2,204 246.8,204 251.2,198 252.1,198 255.7,203.3 260.2,197.4 260.7,198 264.4,203.3 
	268.9,197.4 269.4,198 273,203.3 277.5,197.4 278,198 281.7,203.3 286.2,197.4 286.7,198 290.3,203.3 294.8,197.4 295.3,198 
	299,203.3 303.5,197.4 304,198 307.6,203.3 312.1,197.4 312.6,198 316.3,203.3 320.8,197.4 321.3,198 324.9,203.3 329.4,197.4 
	329.9,198 333.5,203.3 338.1,197.4 338.6,198 342.2,203.3 346.7,197.4 347.2,198 350.8,203.3 355.4,197.4 355.8,198 359.5,203.3 
	364,197.4 364.5,198 368.1,203.3 372.7,197.4 373.1,198 376.8,203.3 381.3,197.4 381.8,198 385.4,203.3 390,197.4 390.7,198 
	394.4,203.3 398.9,197.4 402.2,199.4 409.1,194.8 409.1,172.6 409.1,169.2 409.1,147 404.3,143.4 402.6,144.4 398.1,138.6 
	394.5,143.8 393.7,144.4 389.2,138.6 385.5,143.8 385.1,144.4 380.5,138.6 376.9,143.8 376.4,144.4 371.9,138.6 368.2,143.8 
	367.8,144.4 363.2,138.6 359.6,143.8 359.1,144.4 354.6,138.6 351,143.8 350.5,144.4 345.9,138.6 342.3,143.8 341.8,144.4 
	337.3,138.6 333.7,143.8 333.2,144.4 328.6,138.6 325,143.8 324.5,144.4 320,138.6 316.4,143.8 315.9,144.4 311.4,138.6 
	307.7,143.8 307.2,144.4 302.7,138.6 299.1,143.8 298.6,144.4 294.1,138.6 290.4,143.8 289.9,144.4 285.4,138.6 281.8,143.8 
	281.3,144.4 276.8,138.6 273.1,143.8 272.6,144.4 268.1,138.6 264.5,143.8 264,144.4 259.5,138.6 255.8,143.8 254.9,143.9 
	250.6,137.9 167.9,137.9 "/>
	<g>
		<path class="st1" d="M167.9,113h-26.2c-11.3,0-11.8,11.3-11.8,11.3V170v1.8v45.7c0,0,0.5,11.3,11.8,11.3h26.2V113z"/>
		<path class="st2" d="M167.9,113h-26.2c-11.3,0-11.8,11.3-11.8,11.3V170v1.8v45.7c0,0,0.5,11.3,11.8,11.3h26.2V113z"/>
	</g>
	<path class="st3" d="M246.7,203.6V160 M403,143.8l2,23 M398.5,139.3l4.7,58.5 M393.5,143.8l4.7,54 M389.1,139.3l5.4,62.6 M385,143.8
	l4.7,54 M380.5,139.3l5.4,62.6 M376.4,143.8l4.7,54 M372,139.3l5.4,62.6 M367.8,143.8l4.7,54 M363.4,139.3l5.4,62.6 M359.2,143.8
	l4.7,54 M354.8,139.3l5.4,62.6 M350.2,143.8l4.7,54 M345.8,139.3l5.4,62.6 M341.5,143.8l4.7,54 M337.1,139.3l5.4,62.6 M332.8,143.8
	l4.7,54 M328.4,139.3l5.4,62.6 M324.4,143.8l4.7,54 M319.9,139.3l5.4,62.6 M315.9,143.8l4.7,54 M311.5,139.3l5.4,62.6 M307.2,143.8
	l4.7,54 M302.8,139.3l5.4,62.6 M298.5,143.8l4.7,54 M294.1,139.3l5.4,62.6 M289.8,143.8l4.7,54 M285.3,139.3l5.4,62.6 M281.2,143.8
	l4.7,54 M276.8,139.3l5.4,62.6 M272.3,143.8l4.7,54 M267.9,139.3l5.4,62.6 M263.9,143.8l4.7,54 M251,143l5.2,59.9 M248.6,160.3
	l3.1,37 M259.5,139.3l5.4,62.6 M255.3,143.8l4.7,54"/>
	<polygon class="st1" points="168.6,224.1 170.6,218.4 170.6,175.1 170.6,168.5 170.6,125.2 168.6,119.5 "/>
	<polygon class="st3" points="168.6,224.1 170.6,218.4 170.6,175.2 170.6,168.5 170.6,125.2 168.6,119.5 "/>
	<g>
		<path class="st4" d="M137.2,142.3c0,0-7.2-5.1-7.2-15.9 M168,142.3h-30.8c0,0-7.3,9.7-7.3,27.3v2.2c0,17.6,7.3,27.3,7.3,27.3H168
		 M137.2,199.2c0,0-7.2,5.1-7.2,15.9"/>
	</g>
</svg>